<svg width="720" height="500" viewBox="0 0 720 500" fill="none" xmlns="http://www.w3.org/2000/svg">
  <rect width="720" height="500" rx="22" fill="#F3F7FC"/>
  <rect x="90" y="70" width="540" height="360" rx="20" fill="white" stroke="#CFDDED" stroke-width="3"/>
  <rect x="132" y="120" width="210" height="270" rx="14" fill="#F8FBFF" stroke="#D8E4F3"/>
  <rect x="378" y="120" width="210" height="120" rx="14" fill="#F8FBFF" stroke="#D8E4F3"/>
  <rect x="378" y="270" width="210" height="120" rx="14" fill="#F8FBFF" stroke="#D8E4F3"/>
  <path d="M165 247C165 223 184 204 208 204H266C290 204 309 223 309 247V259C309 283 290 302 266 302H208C184 302 165 283 165 259V247Z" fill="#E4EEFA" stroke="#AFC5E0"/>
  <path d="M416 182H551" stroke="#90ACCD" stroke-width="8" stroke-linecap="round"/>
  <path d="M416 212H520" stroke="#A6BDDA" stroke-width="8" stroke-linecap="round"/>
  <path d="M416 332H551" stroke="#90ACCD" stroke-width="8" stroke-linecap="round"/>
  <path d="M416 362H520" stroke="#A6BDDA" stroke-width="8" stroke-linecap="round"/>
  <text x="360" y="102" fill="#163555" font-family="Georgia, serif" font-size="26" text-anchor="middle">Smile Planning Dashboard</text>
</svg>
